<svg width="24" height="24" viewBox="0 0 24 24" fill="none" xmlns="http://www.w3.org/2000/svg">
    <path d="M12 11.6914C11.0347 11.6914 10.21 11.3494 9.526 10.6654C8.842 9.98157 8.5 9.15691 8.5 8.19141C8.5 7.22607 8.842 6.40141 9.526 5.71741C10.21 5.03341 11.0347 4.69141 12 4.69141C12.9653 4.69141 13.79 5.03341 14.474 5.71741C15.158 6.40141 15.5 7.22607 15.5 8.19141C15.5 9.15691 15.158 9.98157 14.474 10.6654C13.79 11.3494 12.9653 11.6914 12 11.6914ZM4.5 17.7877V17.0837C4.5 16.594 4.633 16.1405 4.899 15.7232C5.165 15.3058 5.5205 14.985 5.9655 14.7607C6.95383 14.2762 7.95092 13.9127 8.95675 13.6704C9.96258 13.4281 10.977 13.3069 12 13.3069C13.023 13.3069 14.0374 13.4281 15.0433 13.6704C16.0491 13.9127 17.0462 14.2762 18.0345 14.7607C18.4795 14.985 18.835 15.3058 19.101 15.7232C19.367 16.1405 19.5 16.594 19.5 17.0837V17.7877C19.5 18.2093 19.3523 18.568 19.0568 18.8637C18.7613 19.1592 18.4026 19.3069 17.9808 19.3069H6.01925C5.59742 19.3069 5.23875 19.1592 4.94325 18.8637C4.64775 18.568 4.5 18.2093 4.5 17.7877Z" fill="#e9e1ff"/>
</svg>
