<svg width="56" height="56" viewBox="2 2 56 56" fill="none" xmlns="http://www.w3.org/2000/svg">
  <g transform="rotate(45 30 30)">
    <path
      d="M30,0
         C40,0 60,19 60,30
         C60,41 41,60 30,60
         C19,60 0,41 0,30
         C0,19 19,0 30,0
         Z"
      fill="black"
    />
  </g>
  <g transform="translate(12.27,17.1)">
    <path d="M17.5096 25.0887C17.5096 25.0887 28.4915 25.0887 31.2155 24.3634C32.7492 23.9524 33.9027 22.7677 34.3075 21.305C35.056 18.6214 35.056 12.9762 35.056 12.9762C35.056 12.9762 35.056 7.36725 34.3075 4.70783C33.9027 3.20888 32.7492 2.0484 31.2155 1.64949C28.4915 0.912106 17.5096 0.912109 17.5096 0.912109C17.5096 0.912109 6.5523 0.912106 3.84058 1.64949C2.33135 2.0484 1.1534 3.20888 0.723943 4.70783C2.06106e-07 7.36725 0 12.9762 0 12.9762C0 12.9762 2.06106e-07 18.6214 0.723943 21.305C1.1534 22.7677 2.33135 23.9524 3.84058 24.3634C6.5523 25.0887 17.5096 25.0887 17.5096 25.0887Z" fill="#906eea"/>
    <path d="M22.9666 13.0008L13.9004 7.86328V18.1383L22.9666 13.0008Z" fill="#0c0912"/>
  </g>
</svg>